<?xml version="1.0" encoding="utf-8"?>
<!-- Generator: Adobe Illustrator 23.0.1, SVG Export Plug-In . SVG Version: 6.00 Build 0)  -->
<svg version="1.1" xmlns="http://www.w3.org/2000/svg" xmlns:xlink="http://www.w3.org/1999/xlink" x="0px" y="0px"
	 viewBox="0 0 612 792" style="enable-background:new 0 0 612 792;" xml:space="preserve">
<style type="text/css">
	.st0{fill:#00A69F;}
	.st1{fill:#00A397;}
	.st2{fill:#FFFFFF;}
	.st3{fill:#882167;}
	.st4{fill:#EE245F;}
	.st5{fill:#1B2755;}
	.st6{fill:#FCCEBC;}
	.st7{fill:#FBB05D;}
	.st8{fill:#DB2F6B;}
	.st9{fill:#FBB160;}
	.st10{fill:#E2D664;}
	.st11{fill:#FBB05F;}
	.st12{fill:#E3D569;}
	.st13{fill:#F59099;}
	.st14{fill:#8B2169;}
</style>
<g id="Layer_9">
	<polygon class="st0" points="356.81,543.98 537.27,365.21 491.75,250.51 491.75,177.26 295.67,88.47 271.96,146.62 	"/>
	<polygon class="st0" points="387.09,531.52 511.66,404.07 463.56,467.79 481.89,460.41 	"/>
	<polygon class="st0" points="417.06,103.7 440.87,161.85 473.93,112.01 414.74,99.79 	"/>
	<polygon class="st1" points="253.01,88.47 315.21,66.32 398.13,94.7 316.93,46.25 323.1,59.4 	"/>
	<polygon class="st0" points="220.91,576.37 118.45,582.05 143.03,525.68 33.31,425.95 	"/>
	<polygon class="st2" points="101.15,525.68 101.15,361.52 202.22,487.99 	"/>
</g>
<g id="Layer_2">
	<path class="st2" d="M196,446.9c-0.39-10.52,0-22.6,0-22.6v-44.03c0,0-35.07-28.45-30-58.84c5.07-30.39,41.69-29.61,55.72-7.4
		l15.98-1.95l30.78-49.49l85.32-72.62l85.5,6.21l24.27,58.66c-5.2,29.94-1.87,44.78,2.95,59.32c1.96,5.91,4.3,39.17-4.3,73.55
		s-9.07,75.46-14.33,82.63c-5.25,7.16-18.63,14.81-18.63,14.81H381.5c0,0-12.42,27.7-17.19,39.17
		c-4.78,11.46-162.87-52.54-162.87-52.54L196,446.9z"/>
	<path class="st3" d="M160.68,461.22c0,0,56.88-35.7,203.62,65.99c0,0,53,53.47,43.35,83.47l1.17,9.11
		c33.13,24.51,35.79,47.68,35.79,47.68s-30.43,33.7-33.21,35.16C369.82,724.5,157.67,482.31,160.68,461.22z"/>
	<path class="st3" d="M401.19,711.1"/>
	<path class="st3" d="M399.54,719.81"/>
	<polyline class="st4" points="272.78,327.09 269.99,342.99 293.51,419.98 313.76,432.83 329.07,465.15 335.56,467.22 
		331.74,432.83 323.1,427.33 323.1,423.87 329.07,428.02 329.07,418.33 315.21,394.54 278.25,350.44 278.25,302.38 	"/>
	<polyline class="st4" points="423.15,442.86 431.09,452.6 379.43,449.19 432.31,460.41 451.08,451.65 452.94,449.19 423.15,442.86 
			"/>
	<polygon class="st5" points="406.04,365.21 442.08,357.83 452.94,360.89 440.37,365.21 427.89,361.76 	"/>
	<polyline class="st4" points="281.31,442.04 335.56,467.22 370.09,484.36 364.3,527.2 381.5,488.04 429.26,488.04 432.31,486.18 
		370.09,484.36 	"/>
	<polyline class="st4" points="196,383.16 202.91,386.84 215.37,383.16 196.4,451.64 	"/>
	<polygon class="st4" points="389.13,295.59 375.28,280.92 387.46,268.89 395.27,270.19 	"/>
	<polygon class="st4" points="381.17,406.91 398.13,412.45 381.17,417.4 	"/>
	<path class="st2" d="M463.56,262.54"/>
	<polyline class="st6" points="305,238.31 291.95,318.94 356.81,371.17 399.54,465.15 291.95,432.83 265.21,356.57 254.45,340.67 
		257.43,259.03 305,238.31 	"/>
	<polygon class="st4" points="264.52,274.34 294.29,360.81 329.07,365.21 356.81,449.19 305,442.04 281.31,397.91 248.98,327.09 	
		"/>
	<polygon class="st7" points="461.73,262.54 436.68,271.58 423.15,284.04 452.94,333.53 465.01,309.38 461.09,287.43 	"/>
	<polygon class="st8" points="181.1,467.22 225.24,470.08 370.09,576.37 173.84,530.31 	"/>
</g>
<g id="Layer_4">
	<path class="st5" d="M284.03,253.04"/>
	<polyline class="st9" points="270.26,260.29 270,340.67 288.49,250.51 	"/>
	<polygon class="st9" points="288.47,250.51 327.44,221.74 345.92,196.45 366.69,218.48 339.49,225 335.89,238.71 334.99,228.14 	
		"/>
	<polygon class="st9" points="350.73,196.45 365.13,210.83 367.81,209.03 356.12,197.57 389.39,206.34 423.15,218.03 432.33,212.41 
		415.02,194.65 357.69,188.58 	"/>
</g>
<g id="Layer_3">
	<polygon class="st10" points="457.17,353.69 440.37,365.21 435.76,358.3 423.15,359.45 432.37,350.44 445.11,355.05 	"/>
	<polygon class="st10" points="456.06,345.25 452.34,350.44 420.92,287.43 	"/>
	<path class="st10" d="M402.7,347.92c0,0-6.32,8.31,4.65,11.97c10.97,3.65,17.11,1.49,17.11,1.49l-18.41,3.84l-6.51-7.81
		L402.7,347.92z"/>
	<path class="st10" d="M457.17,416.47l-4.23,32.72l-29.79-6.32C423.15,442.86,454.49,431.78,457.17,416.47z"/>
	<polygon class="st10" points="271.86,432.83 257.64,374.22 248.98,390.42 	"/>
	<polygon class="st11" points="398.13,254.96 423.15,328.69 406.09,344.61 395.27,330.76 395.27,295.59 399.54,293.21 
		399.54,310.34 404.7,305.84 	"/>
	<polyline class="st10" points="431.09,257.73 416.19,246.21 445.12,232.61 457.17,246.21 	"/>
	<polygon class="st7" points="331.74,295.59 350.73,284.04 368.7,282.24 375.28,274.34 368.7,274.34 375.28,267.42 353.51,267.42 
		323.1,279.88 	"/>
	<polyline class="st2" points="431.09,294.91 435.16,299.78 445.38,298.92 456.06,289.4 455.76,284.04 442.17,280.23 435.85,281.5 
		429.15,288.97 431.09,294.91 	"/>
</g>
<g id="Layer_6">
	<path class="st5" d="M401.19,260.33l-5.92,9.86c0,0-34.27-10.9-55.29-2.08c-21.03,8.83-19.73,8.83-19.73,8.83l11.49-16.61
		l41.46-7.28L401.19,260.33z"/>
	<path class="st5" d="M431.09,261.1l4.67,7.79c0,0,24.92-10.9,28.56-7.79c3.63,3.12,0-11.94,0-11.94l-31.99,12.2L431.09,261.1z"/>
	<polygon class="st5" points="366.69,414.79 376.32,389.35 427.46,371.17 431.09,374.22 436.81,371.17 446.93,371.17 461.73,386.23 
		461.73,394.54 446.93,383.89 435.51,385.97 424.45,384.15 381.25,397.65 376.32,401.22 	"/>
	<polygon class="st5" points="424.45,423.87 440.16,423.87 431.09,437.89 	"/>
	<polygon class="st5" points="269.99,342.99 254.83,342.99 260.42,374.22 281.31,442.04 329.07,465.15 313.76,432.83 293.51,419.98 
			"/>
	<polygon class="st5" points="323.1,432.83 335.56,467.22 370.09,484.36 411.99,487.99 434.21,485.4 448.52,471.64 451.08,451.65 
		432.31,460.41 381.25,449.19 344.65,443.86 	"/>
	<polygon class="st12" points="381.17,406.91 401.19,425.95 438.49,420.41 396.74,406.91 	"/>
	<polygon class="st5" points="385.28,297.53 370.44,284.04 352.44,285.42 331.74,299.61 353.48,287.43 368.01,287.43 379.43,295.59 
		371.82,302.38 	"/>
	<polygon class="st13" points="381.17,404.07 420.92,390.42 435.16,392.98 445.12,390.42 456.06,397.24 452.94,401.22 
		454.54,406.91 442.08,417.4 420.92,417.4 	"/>
	<polygon class="st14" points="381.17,404.07 409.21,405.53 424.45,404.07 432.31,406.91 442.78,403.52 452.94,401.22 445.12,399.3 
		431.09,403.1 411.99,401.22 	"/>
	<polygon class="st14" points="381.17,404.07 420.92,417.4 442.08,417.4 448.31,412.15 443.12,420.41 423.15,420.41 	"/>
	<polygon class="st5" points="341.01,294.07 342.23,298.75 348.98,301.69 356.59,302.38 361.51,297.19 361.51,287.43 352.78,287.43 
			"/>
	<polygon class="st5" points="427.2,287.43 434.99,279.19 456.06,279.19 463.56,287.43 452.94,284.04 445.38,281.5 435.85,281.5 	
		"/>
	<path class="st5" d="M431.09,294.91l-3.89-7.48L431.09,294.91z"/>
	<polygon class="st5" points="436.68,294.91 440.87,289.23 440.16,281.5 435.85,281.5 427.2,287.43 431.09,294.91 	"/>
	<polygon class="st4" points="435.16,299.78 445.38,298.92 456.06,289.4 448.52,301.34 	"/>
	<polyline class="st11" points="370.09,508.5 281.31,442.04 370.09,484.36 	"/>
	<polygon class="st11" points="215.37,331.46 205.68,344.61 212.77,365.21 	"/>
	<polygon class="st11" points="210.53,318.94 187.85,305.5 175.39,312.22 171.24,333.53 180.58,314.09 	"/>
	<path class="st0" d="M435.16,299.78"/>
	<polygon class="st2" points="381.17,404.07 420.92,417.4 442.08,417.4 454.54,406.91 436.68,403.91 	"/>
	<polyline class="st13" points="413.77,415 420.92,417.4 424.12,417.3 381.17,404.07 421.43,416.47 424.45,417.4 442.08,417.4 
		454.54,406.91 444.08,413.14 442.08,417.4 420.92,414.73 381.17,404.07 	"/>
</g>
<g id="Layer_5">
	<path class="st5" d="M435.51,223.37c0,0,6.43,34.28,25.71,3.75c0,0,14.46,3.75,24.64-21.96c0,0,10.18,1.07,3.75-18.21
		c0,0-11.79,17.68-22.5,6.43c0,0,9.11,1.61,10.18-23.03c1.07-24.64-6.43-21.96-6.43-21.96s5.34,23.57-7.24,17.68
		c-12.58-5.89-60.26-54.64-60.26-54.64s-32.14-12.86-57.32-3.75c-25.18,9.11-41.25-18.31-69.64-3.26s-88.39-12.27-119.46,70.22
		c0,0-25.71,9.79-15,65.16c0,0-15.53,68.76,20.89,108.94c0,0,19.28,48.21,28.93,52.5l4.29-16.07c-5.63-4.14-14.63-11.95-20.78-24.51
		c-6.56-13.41-14.87-42.48,0.55-54.23c10.58-8.06,29.47-5.77,40.18,3.67c2.68,2.36,4.5,4.86,5.7,6.84
		c5.33-0.65,10.65-1.3,15.98-1.95c5.59,8.57,11.17,17.13,16.76,25.7h15.53l-1.07-54.09l3.21-27.32c0,0,49.28-23.03,69.1-54.1
		c19.82-31.07,45,9.11,73.39-8.57c0,0,0.54,20.36,16.61,16.61L435.51,223.37z"/>
	<polygon class="st0" points="265.73,249.16 306.75,227.1 335.56,177.26 	"/>
	<polygon class="st0" points="361.51,172.58 395.27,188.58 424.45,177.26 429.15,198.54 427.2,168.95 399.54,180.37 	"/>
	<polygon class="st0" points="457.17,188.58 468.36,183.75 473.93,168.95 	"/>
	<polygon class="st0" points="465.94,198.54 477.04,198.54 485.43,191.84 482.75,203.3 	"/>
	<polygon class="st0" points="457.17,223.48 448.31,236.21 436.68,213.21 	"/>
	<polygon class="st0" points="478.08,208.41 463.56,223.48 465.01,203.3 	"/>
	<polygon class="st0" points="265.73,333.53 265.73,259.03 240.29,262.54 	"/>
	<polygon class="st0" points="317.83,286.12 331.69,294.97 322.86,280.93 	"/>
	<polygon class="st0" points="436.68,305.5 452.94,319.51 452.94,333.53 	"/>
</g>
<g id="Layer_8">
	<polygon class="st0" points="69.3,379.22 465.94,743.35 171.24,596.59 254.83,593.82 	"/>
	<polygon class="st0" points="90.07,276.94 150.3,414.79 145.45,279.19 240.29,73.94 90.07,218.03 114.3,253.04 45.77,282.24 	"/>
	<polyline class="st2" points="205.68,118.01 105.99,218.03 112.22,223.48 215.37,118.01 205.68,118.01 	"/>
	<polygon class="st2" points="335.56,605.59 406.04,676.2 409.21,651.97 399.54,651.97 	"/>
	<polygon class="st2" points="485.43,288.2 511.66,350.44 517.19,342.99 485.43,253.04 	"/>
	<polygon class="st2" points="115.69,356.57 190.88,268.89 76.92,337.69 	"/>
	<polygon class="st2" points="431.09,118.01 338.43,123.78 444.33,130.82 	"/>
	<polygon class="st2" points="322.14,88.47 267.62,124.42 291.95,118.01 242.62,154.24 316.93,118.01 	"/>
</g>
</svg>
